<svg width="41" height="72" viewBox="0 0 41 72" fill="none" xmlns="http://www.w3.org/2000/svg">
<path d="M27.404 31.403C27.73 31.324 29.142 31.609 29.475 31.53C29.938 31.418 30.107 31.18 29.79 30.824C29.16 30.114 26.829 29.054 20.768 28.792C20.71 28.788 20.631 28.78 20.54 28.773C19.673 28.862 20.193 28.594 19.727 29.342C19.698 29.386 19.735 29.447 19.735 29.5C19.9 29.843 19.527 30.457 19.858 30.533C21.327 30.867 21.291 31.755 19.735 33.31C18.819 34.225 18.436 38.798 19.682 40.551L19.678 40.553C19.901 41.055 21.206 42.503 21.067 42.686C20.202 43.833 19.117 42.471 19.372 44.244C19.404 44.491 19.068 44.994 18.828 45.044C17.549 45.321 17.505 46.513 17.065 47.371C16.918 47.66 17.06 48.341 17.308 48.528C17.67 48.805 18.251 48.885 18.727 48.856C18.85 48.848 18.93 48.118 19.022 47.719C19.127 47.268 19.229 46.815 19.33 46.364C19.775 46.552 20.229 46.725 20.668 46.936C20.814 47.003 20.917 47.168 21.043 47.282C21.703 47.877 22.094 47.608 22.196 46.852C22.279 46.233 22.271 45.594 22.222 44.969C22.109 43.538 21.359 38.594 23.396 37.68C24.793 37.055 26.105 37.801 26.105 37.801C31.572 39.464 27.753 35.762 26.991 34.936C26.146 34.024 25.306 31.903 27.404 31.403Z" fill="black"/>
<path d="M36.175 50.882C36.117 50.594 35.657 54.332 30.289 58.803C27.834 60.044 25.339 61.221 22.784 62.233C21.475 62.753 20.018 62.981 18.606 63.128C17.203 63.273 15.837 62.672 15.293 61.398C14.585 59.738 13.992 58.697 12.151 60.169C12.015 60.281 11.05 59.775 10.991 59.458C10.917 59.074 11.297 58.449 11.666 58.184C11.979 57.955 12.569 58.159 13.007 58.046C14.21 57.74 15.453 57.49 16.583 56.992C17.7 56.5 17.737 55.797 16.801 55.058C16.041 54.457 15.218 53.917 14.366 53.454C13.895 53.198 13.311 53.151 12.778 53.01C13.288 52.866 13.959 52.882 14.272 52.552C15.655 51.099 17.227 51.712 18.78 51.982C19.121 52.043 19.457 52.17 19.795 52.17C20.03 52.166 20.266 51.999 20.499 51.906C20.329 51.701 20.193 51.369 19.985 51.312C18.392 50.894 16.785 50.525 15.18 50.158C14.906 50.095 14.579 50.181 14.336 50.072C13.995 49.915 13.709 49.635 13.399 49.411C13.655 49.223 13.892 48.988 14.174 48.853C15.473 48.224 15.748 47.129 15.591 45.828C15.566 45.603 15.566 45.314 15.43 45.17C14.268 43.912 12.002 44.766 11.367 42.963C10.935 41.738 14.215 39.272 14.661 37.197C15.905 31.418 14.746 30.955 11.557 30.091C9.79901 29.614 17.465 28.774 13.367 28.107C13.09 28.06 10.054 27.552 9.61401 27.521C8.46801 27.441 7.00501 27.846 5.86001 27.848C4.24301 27.848 2.84201 30.003 5.08401 29.916C5.52601 29.901 4.21601 30.839 4.05701 31.235C2.69001 34.66 4.03601 37.393 6.28301 39.834C7.06501 40.684 6.95801 41.167 6.07801 41.719C4.03601 42.999 3.86401 43.797 4.97901 45.908C5.39701 46.703 5.87001 47.591 5.89101 48.447C5.95401 51.187 5.17501 51.988 5.76501 55.959C6.03401 57.752 7.35201 59.984 9.88801 61.88C17.101 67.272 13.742 67.154 12.076 69.716C11.184 71.083 21.065 73.36 31.857 65.029C43.981 55.675 36.382 51.918 36.175 50.882Z" fill="black"/>
<path d="M38.961 14.799C38.243 12.599 36.912 10.874 35.971 8.88C35.884 8.692 35.608 8.401 35.528 8.433C34.13 8.985 34.046 8.079 33.839 7.083C33.753 6.654 33.255 6.263 32.864 5.956C31.783 5.105 30.41 4.5 29.614 3.449C28.409 1.85 26.954 1.199 25.068 1.159C24.733 1.152 24.367 1.067 24.076 0.911003C21.888 -0.255997 19.719 0.0270034 17.47 0.778003C16.539 1.089 15.267 0.656003 14.511 1.134C13.679 1.657 13.319 2.887 12.642 3.723C12.082 4.414 11.218 4.884 10.73 5.616C9.09901 8.069 7.19102 10.354 6.56102 13.392C6.03002 15.957 5.17901 18.455 4.50001 20.991C4.29801 21.749 4.20301 22.537 4.05801 23.309L4.06101 23.303C4.38201 22.722 4.81001 22.176 5.01301 21.557C5.75501 19.279 6.80001 17.22 8.70101 15.666C9.63401 14.906 10.603 14.549 11.678 15.265C11.886 15.403 12 15.634 12.196 15.702C14.751 16.589 17.653 16.312 20.288 15.682C20.643 15.599 20.985 15.402 21.335 15.315C22.539 15.02 23.789 14.812 25.023 14.773C26.216 14.735 27.435 14.859 28.608 15.089C30.588 15.479 32.487 16.025 33.835 17.781C35.664 20.171 37.291 22.635 38.058 25.597C38.272 26.426 38.626 27.222 38.953 28.018C39.028 28.198 39.267 28.31 39.432 28.455C39.529 28.278 39.694 28.108 39.713 27.923C40.211 23.511 40.395 19.182 38.961 14.799Z" fill="black"/>
<path d="M1.007 38.884C1.026 38.098 1.56101 36.887 1.77001 36.287C1.79901 36.2 1.825 36.125 1.837 36.068C1.846 36.037 1.85201 36.009 1.85201 35.985C1.88301 35.577 1.56001 35.141 1.39201 34.717C1.16801 35.048 0.906005 35.355 0.734005 35.713C0.694005 35.794 0.664005 35.884 0.634005 35.975C0.629005 36.001 0.622005 36.026 0.614005 36.052C0.594005 36.127 0.575005 36.205 0.557005 36.289C0.525005 36.34 0.501004 36.461 0.480004 36.624C0.461004 36.702 0.445005 36.778 0.424005 36.868C0.431005 36.889 0.440005 36.919 0.450005 36.951C0.378005 38.054 0.434005 40.118 0.475005 40.343C0.571005 40.822 0.982005 41.241 1.26201 41.685C1.47501 41.418 1.687 41.152 1.969 40.797C1.63 40.454 1.39301 40.025 1.22001 39.568C1.13501 39.344 1.062 39.113 1.007 38.884Z" fill="black"/>
<path d="M16.554 44.133C16.431 44.094 16.264 44.196 16.116 44.237C16.271 44.419 16.407 44.625 16.594 44.768C16.645 44.807 16.838 44.664 17.104 44.543C16.859 44.354 16.724 44.189 16.554 44.133Z" fill="black"/>
</svg>
